<mxfile host="app.diagrams.net" agent="Mozilla/5.0 (Windows NT 10.0; Win64; x64) AppleWebKit/537.36 (KHTML, like Gecko) Chrome/135.0.0.0 Safari/537.36" version="26.2.14">
  <diagram name="Страница — 1" id="DyJaACHZ-Qu4j4dXTXyz">
    <mxGraphModel dx="872" dy="1642" grid="1" gridSize="10" guides="1" tooltips="1" connect="1" arrows="1" fold="1" page="1" pageScale="1" pageWidth="827" pageHeight="1169" math="0" shadow="0">
      <root>
        <mxCell id="0" />
        <mxCell id="1" parent="0" />
        <mxCell id="5j_cM3AdmCN1_-_gZiW3-1" value="" style="group" parent="1" connectable="0" vertex="1">
          <mxGeometry x="150" y="-1030" width="360" height="80" as="geometry" />
        </mxCell>
        <mxCell id="5j_cM3AdmCN1_-_gZiW3-2" value="" style="group" parent="5j_cM3AdmCN1_-_gZiW3-1" connectable="0" vertex="1">
          <mxGeometry width="359.99999999999994" height="80" as="geometry" />
        </mxCell>
        <mxCell id="5j_cM3AdmCN1_-_gZiW3-3" value="" style="group" parent="5j_cM3AdmCN1_-_gZiW3-2" connectable="0" vertex="1">
          <mxGeometry width="359.99999999999983" height="80" as="geometry" />
        </mxCell>
        <mxCell id="5j_cM3AdmCN1_-_gZiW3-5" value="&lt;div style=&quot;text-align: left;&quot;&gt;&lt;font face=&quot;DeepSeek-CJK-patch, Inter, system-ui, -apple-system, BlinkMacSystemFont, Segoe UI, Roboto, Noto Sans, Ubuntu, Cantarell, Helvetica Neue, Oxygen, Open Sans, sans-serif&quot; color=&quot;#404040&quot;&gt;&lt;span style=&quot;font-size: 15px; background-color: rgb(255, 255, 255);&quot;&gt;id&lt;/span&gt;&lt;/font&gt;&lt;/div&gt;" style="whiteSpace=wrap;html=1;align=center;" parent="5j_cM3AdmCN1_-_gZiW3-3" vertex="1">
          <mxGeometry y="40" width="119.99999999999994" height="40" as="geometry" />
        </mxCell>
        <mxCell id="5j_cM3AdmCN1_-_gZiW3-6" value="&lt;span style=&quot;color: rgb(64, 64, 64); font-family: DeepSeek-CJK-patch, Inter, system-ui, -apple-system, BlinkMacSystemFont, &amp;quot;Segoe UI&amp;quot;, Roboto, &amp;quot;Noto Sans&amp;quot;, Ubuntu, Cantarell, &amp;quot;Helvetica Neue&amp;quot;, Oxygen, &amp;quot;Open Sans&amp;quot;, sans-serif; font-size: 15px; text-align: left; background-color: rgb(255, 255, 255);&quot;&gt;chat_id&lt;/span&gt;" style="whiteSpace=wrap;html=1;align=center;" parent="5j_cM3AdmCN1_-_gZiW3-3" vertex="1">
          <mxGeometry x="119.99999999999994" y="40" width="119.99999999999994" height="40" as="geometry" />
        </mxCell>
        <mxCell id="5j_cM3AdmCN1_-_gZiW3-7" value="&lt;span style=&quot;color: rgb(64, 64, 64); font-family: DeepSeek-CJK-patch, Inter, system-ui, -apple-system, BlinkMacSystemFont, &amp;quot;Segoe UI&amp;quot;, Roboto, &amp;quot;Noto Sans&amp;quot;, Ubuntu, Cantarell, &amp;quot;Helvetica Neue&amp;quot;, Oxygen, &amp;quot;Open Sans&amp;quot;, sans-serif; font-size: 15px; text-align: left; background-color: rgb(255, 255, 255);&quot;&gt;username&lt;/span&gt;" style="whiteSpace=wrap;html=1;align=center;" parent="5j_cM3AdmCN1_-_gZiW3-3" vertex="1">
          <mxGeometry x="239.9999999999999" y="40" width="119.99999999999994" height="40" as="geometry" />
        </mxCell>
        <mxCell id="5j_cM3AdmCN1_-_gZiW3-8" value="&lt;strong style=&quot;font-family: inherit; font-style: inherit; font-variant: inherit; background-color: rgb(255, 255, 255); box-sizing: border-box; margin: 0px; padding: 0px; border: 0px; font-stretch: inherit; line-height: inherit; font-optical-sizing: inherit; font-size-adjust: inherit; font-kerning: inherit; font-feature-settings: inherit; font-variation-settings: inherit; vertical-align: baseline;&quot; class=&quot;sc-iFwKgL hUqJiY&quot;&gt;&lt;span style=&quot;box-sizing: border-box; margin: 0px; padding: 0px; border: 0px; font-style: inherit; font-variant: inherit; font-weight: inherit; font-stretch: inherit; line-height: inherit; font-family: inherit; font-optical-sizing: inherit; font-size-adjust: inherit; font-kerning: inherit; font-feature-settings: inherit; font-variation-settings: inherit; vertical-align: baseline;&quot; class=&quot;sc-hjriPb UUUfT&quot;&gt;users&lt;/span&gt;&lt;/strong&gt;" style="whiteSpace=wrap;html=1;align=center;" parent="5j_cM3AdmCN1_-_gZiW3-1" vertex="1">
          <mxGeometry width="359.99999999999994" height="40" as="geometry" />
        </mxCell>
        <mxCell id="5j_cM3AdmCN1_-_gZiW3-9" value="&lt;h3 style=&quot;--tw-border-spacing-x: 0; --tw-border-spacing-y: 0; --tw-translate-x: 0; --tw-translate-y: 0; --tw-rotate: 0; --tw-skew-x: 0; --tw-skew-y: 0; --tw-scale-x: 1; --tw-scale-y: 1; --tw-pan-x: ; --tw-pan-y: ; --tw-pinch-zoom: ; --tw-scroll-snap-strictness: proximity; --tw-gradient-from-position: ; --tw-gradient-via-position: ; --tw-gradient-to-position: ; --tw-ordinal: ; --tw-slashed-zero: ; --tw-numeric-figure: ; --tw-numeric-spacing: ; --tw-numeric-fraction: ; --tw-ring-inset: ; --tw-ring-offset-width: 0px; --tw-ring-offset-color: light-dark(#fff, #000000); --tw-ring-color: rgb(59 130 246 / .5); --tw-ring-offset-shadow: 0 0 #0000; --tw-ring-shadow: 0 0 #0000; --tw-shadow: 0 0 #0000; --tw-shadow-colored: 0 0 #0000; --tw-blur: ; --tw-brightness: ; --tw-contrast: ; --tw-grayscale: ; --tw-hue-rotate: ; --tw-invert: ; --tw-saturate: ; --tw-sepia: ; --tw-drop-shadow: ; --tw-backdrop-blur: ; --tw-backdrop-brightness: ; --tw-backdrop-contrast: ; --tw-backdrop-grayscale: ; --tw-backdrop-hue-rotate: ; --tw-backdrop-invert: ; --tw-backdrop-opacity: ; --tw-backdrop-saturate: ; --tw-backdrop-sepia: ; --tw-contain-size: ; --tw-contain-layout: ; --tw-contain-paint: ; --tw-contain-style: ; box-sizing: border-box; border-width: 0px; border-style: solid; border-color: rgb(227, 227, 227); margin: 12px 0px; unicode-bidi: plaintext; line-height: 1.78; text-align: start; color: rgb(44, 44, 54);&quot;&gt;&lt;br&gt;&lt;/h3&gt;" style="text;html=1;align=center;verticalAlign=middle;whiteSpace=wrap;rounded=0;" parent="1" vertex="1">
          <mxGeometry x="149" y="-430" width="670" height="120" as="geometry" />
        </mxCell>
        <mxCell id="5j_cM3AdmCN1_-_gZiW3-10" value="&lt;h1 style=&quot;box-sizing: border-box; margin-right: 0px; margin-bottom: 16px; margin-left: 0px; padding-bottom: 0.3em; border-bottom: 1px solid rgba(209, 217, 224, 0.7); color: rgb(31, 35, 40); font-family: -apple-system, BlinkMacSystemFont, &amp;quot;Segoe UI&amp;quot;, &amp;quot;Noto Sans&amp;quot;, Helvetica, Arial, sans-serif, &amp;quot;Apple Color Emoji&amp;quot;, &amp;quot;Segoe UI Emoji&amp;quot;; text-align: start; background-color: rgb(255, 255, 255); line-height: 95%; margin-top: 0px !important;&quot; dir=&quot;auto&quot; class=&quot;heading-element&quot; tabindex=&quot;-1&quot;&gt;&lt;font style=&quot;&quot;&gt;&lt;font style=&quot;vertical-align: inherit;&quot;&gt;&lt;font style=&quot;vertical-align: inherit;&quot;&gt;&lt;font style=&quot;vertical-align: inherit;&quot;&gt;&lt;font style=&quot;vertical-align: inherit; font-size: 18px;&quot;&gt;Схема базы данных «ТГ-чат-бот «Обучалка английскому языку»»&lt;/font&gt;&lt;/font&gt;&lt;/font&gt;&lt;/font&gt;&lt;/font&gt;&lt;/h1&gt;" style="text;html=1;align=center;verticalAlign=middle;whiteSpace=wrap;rounded=0;" parent="1" vertex="1">
          <mxGeometry x="240" y="-1130" width="610" height="30" as="geometry" />
        </mxCell>
        <mxCell id="5j_cM3AdmCN1_-_gZiW3-13" value="" style="group" parent="1" connectable="0" vertex="1">
          <mxGeometry x="150" y="-750" width="360" height="40" as="geometry" />
        </mxCell>
        <mxCell id="5j_cM3AdmCN1_-_gZiW3-14" value="&lt;span style=&quot;color: rgb(64, 64, 64); font-family: DeepSeek-CJK-patch, Inter, system-ui, -apple-system, BlinkMacSystemFont, &amp;quot;Segoe UI&amp;quot;, Roboto, &amp;quot;Noto Sans&amp;quot;, Ubuntu, Cantarell, &amp;quot;Helvetica Neue&amp;quot;, Oxygen, &amp;quot;Open Sans&amp;quot;, sans-serif; font-size: 15px; text-align: left; background-color: rgb(255, 255, 255);&quot;&gt;id&lt;/span&gt;" style="whiteSpace=wrap;html=1;align=center;" parent="5j_cM3AdmCN1_-_gZiW3-13" vertex="1">
          <mxGeometry width="120" height="40" as="geometry" />
        </mxCell>
        <mxCell id="5j_cM3AdmCN1_-_gZiW3-15" value="word (VARCHAR(255))" style="whiteSpace=wrap;html=1;align=center;" parent="5j_cM3AdmCN1_-_gZiW3-13" vertex="1">
          <mxGeometry x="120" width="120" height="40" as="geometry" />
        </mxCell>
        <mxCell id="5j_cM3AdmCN1_-_gZiW3-16" value="&lt;span style=&quot;background-color: rgb(255, 255, 255);&quot;&gt;translation (VARCHAR(255))&lt;/span&gt;" style="whiteSpace=wrap;html=1;align=center;" parent="5j_cM3AdmCN1_-_gZiW3-13" vertex="1">
          <mxGeometry x="240" width="120" height="40" as="geometry" />
        </mxCell>
        <mxCell id="5j_cM3AdmCN1_-_gZiW3-17" value="&lt;strong style=&quot;font-family: inherit; font-style: inherit; font-variant: inherit; background-color: rgb(255, 255, 255); box-sizing: border-box; margin: 0px; padding: 0px; border: 0px; font-stretch: inherit; line-height: inherit; font-optical-sizing: inherit; font-size-adjust: inherit; font-kerning: inherit; font-feature-settings: inherit; font-variation-settings: inherit; vertical-align: baseline;&quot; class=&quot;sc-iFwKgL hUqJiY&quot;&gt;&lt;span style=&quot;box-sizing: border-box; margin: 0px; padding: 0px; border: 0px; font-style: inherit; font-variant: inherit; font-weight: inherit; font-stretch: inherit; line-height: inherit; font-family: inherit; font-optical-sizing: inherit; font-size-adjust: inherit; font-kerning: inherit; font-feature-settings: inherit; font-variation-settings: inherit; vertical-align: baseline;&quot; class=&quot;sc-hjriPb UUUfT&quot;&gt;words&lt;/span&gt;&lt;/strong&gt;" style="whiteSpace=wrap;html=1;align=center;" parent="1" vertex="1">
          <mxGeometry x="150" y="-790" width="600" height="40" as="geometry" />
        </mxCell>
        <mxCell id="5j_cM3AdmCN1_-_gZiW3-19" value="&lt;span style=&quot;color: rgb(64, 64, 64); font-family: DeepSeek-CJK-patch, Inter, system-ui, -apple-system, BlinkMacSystemFont, &amp;quot;Segoe UI&amp;quot;, Roboto, &amp;quot;Noto Sans&amp;quot;, Ubuntu, Cantarell, &amp;quot;Helvetica Neue&amp;quot;, Oxygen, &amp;quot;Open Sans&amp;quot;, sans-serif; font-size: 15px; text-align: left; background-color: rgb(255, 255, 255);&quot;&gt;word&lt;/span&gt;" style="whiteSpace=wrap;html=1;align=center;" parent="1" vertex="1">
          <mxGeometry x="270" y="-750" width="120" height="40" as="geometry" />
        </mxCell>
        <mxCell id="5j_cM3AdmCN1_-_gZiW3-20" value="&lt;span style=&quot;color: rgb(64, 64, 64); font-family: DeepSeek-CJK-patch, Inter, system-ui, -apple-system, BlinkMacSystemFont, &amp;quot;Segoe UI&amp;quot;, Roboto, &amp;quot;Noto Sans&amp;quot;, Ubuntu, Cantarell, &amp;quot;Helvetica Neue&amp;quot;, Oxygen, &amp;quot;Open Sans&amp;quot;, sans-serif; font-size: 15px; text-align: left; background-color: rgb(255, 255, 255);&quot;&gt;translation&lt;/span&gt;" style="whiteSpace=wrap;html=1;align=center;" parent="1" vertex="1">
          <mxGeometry x="390" y="-750" width="120" height="40" as="geometry" />
        </mxCell>
        <mxCell id="5j_cM3AdmCN1_-_gZiW3-21" value="&lt;span style=&quot;color: rgb(64, 64, 64); font-family: DeepSeek-CJK-patch, Inter, system-ui, -apple-system, BlinkMacSystemFont, &amp;quot;Segoe UI&amp;quot;, Roboto, &amp;quot;Noto Sans&amp;quot;, Ubuntu, Cantarell, &amp;quot;Helvetica Neue&amp;quot;, Oxygen, &amp;quot;Open Sans&amp;quot;, sans-serif; font-size: 15px; text-align: left; background-color: rgb(255, 255, 255);&quot;&gt;category&lt;/span&gt;" style="whiteSpace=wrap;html=1;align=center;" parent="1" vertex="1">
          <mxGeometry x="510" y="-750" width="120" height="40" as="geometry" />
        </mxCell>
        <mxCell id="uA43tMn0e1lxk-yBUitx-5" value="&lt;span style=&quot;color: rgb(64, 64, 64); font-family: DeepSeek-CJK-patch, Inter, system-ui, -apple-system, BlinkMacSystemFont, &amp;quot;Segoe UI&amp;quot;, Roboto, &amp;quot;Noto Sans&amp;quot;, Ubuntu, Cantarell, &amp;quot;Helvetica Neue&amp;quot;, Oxygen, &amp;quot;Open Sans&amp;quot;, sans-serif; font-size: 15px; text-align: left; background-color: rgb(255, 255, 255);&quot;&gt;level&lt;/span&gt;" style="whiteSpace=wrap;html=1;align=center;" parent="1" vertex="1">
          <mxGeometry x="630" y="-750" width="120" height="40" as="geometry" />
        </mxCell>
        <mxCell id="uA43tMn0e1lxk-yBUitx-6" value="" style="group" parent="1" connectable="0" vertex="1">
          <mxGeometry x="150" y="-630" width="360" height="40" as="geometry" />
        </mxCell>
        <mxCell id="uA43tMn0e1lxk-yBUitx-7" value="&lt;span style=&quot;color: rgb(64, 64, 64); font-family: DeepSeek-CJK-patch, Inter, system-ui, -apple-system, BlinkMacSystemFont, &amp;quot;Segoe UI&amp;quot;, Roboto, &amp;quot;Noto Sans&amp;quot;, Ubuntu, Cantarell, &amp;quot;Helvetica Neue&amp;quot;, Oxygen, &amp;quot;Open Sans&amp;quot;, sans-serif; font-size: 15px; text-align: left; background-color: rgb(255, 255, 255);&quot;&gt;id&lt;/span&gt;" style="whiteSpace=wrap;html=1;align=center;" parent="uA43tMn0e1lxk-yBUitx-6" vertex="1">
          <mxGeometry width="120" height="40" as="geometry" />
        </mxCell>
        <mxCell id="uA43tMn0e1lxk-yBUitx-8" value="&lt;span style=&quot;color: rgb(64, 64, 64); font-family: DeepSeek-CJK-patch, Inter, system-ui, -apple-system, BlinkMacSystemFont, &amp;quot;Segoe UI&amp;quot;, Roboto, &amp;quot;Noto Sans&amp;quot;, Ubuntu, Cantarell, &amp;quot;Helvetica Neue&amp;quot;, Oxygen, &amp;quot;Open Sans&amp;quot;, sans-serif; font-size: 15px; text-align: left; background-color: rgb(255, 255, 255);&quot;&gt;user_id&lt;/span&gt;" style="whiteSpace=wrap;html=1;align=center;" parent="uA43tMn0e1lxk-yBUitx-6" vertex="1">
          <mxGeometry x="120" width="120" height="40" as="geometry" />
        </mxCell>
        <mxCell id="uA43tMn0e1lxk-yBUitx-9" value="&lt;span style=&quot;background-color: rgb(255, 255, 255);&quot;&gt;translation (VARCHAR(255))&lt;/span&gt;" style="whiteSpace=wrap;html=1;align=center;" parent="uA43tMn0e1lxk-yBUitx-6" vertex="1">
          <mxGeometry x="240" width="120" height="40" as="geometry" />
        </mxCell>
        <mxCell id="uA43tMn0e1lxk-yBUitx-10" value="&lt;strong style=&quot;font-family: inherit; font-style: inherit; font-variant: inherit; background-color: rgb(255, 255, 255); box-sizing: border-box; margin: 0px; padding: 0px; border: 0px; font-stretch: inherit; line-height: inherit; font-optical-sizing: inherit; font-size-adjust: inherit; font-kerning: inherit; font-feature-settings: inherit; font-variation-settings: inherit; vertical-align: baseline;&quot; class=&quot;sc-iFwKgL hUqJiY&quot;&gt;&lt;span style=&quot;box-sizing: border-box; margin: 0px; padding: 0px; border: 0px; font-style: inherit; font-variant: inherit; font-weight: inherit; font-stretch: inherit; line-height: inherit; font-family: inherit; font-optical-sizing: inherit; font-size-adjust: inherit; font-kerning: inherit; font-feature-settings: inherit; font-variation-settings: inherit; vertical-align: baseline;&quot; class=&quot;sc-hjriPb UUUfT&quot;&gt;user_words&lt;/span&gt;&lt;/strong&gt;" style="whiteSpace=wrap;html=1;align=center;" parent="1" vertex="1">
          <mxGeometry x="150" y="-670" width="840" height="40" as="geometry" />
        </mxCell>
        <mxCell id="uA43tMn0e1lxk-yBUitx-11" value="&lt;span style=&quot;color: rgb(64, 64, 64); font-family: DeepSeek-CJK-patch, Inter, system-ui, -apple-system, BlinkMacSystemFont, &amp;quot;Segoe UI&amp;quot;, Roboto, &amp;quot;Noto Sans&amp;quot;, Ubuntu, Cantarell, &amp;quot;Helvetica Neue&amp;quot;, Oxygen, &amp;quot;Open Sans&amp;quot;, sans-serif; font-size: 15px; text-align: left; background-color: rgb(255, 255, 255);&quot;&gt;word&lt;/span&gt;" style="whiteSpace=wrap;html=1;align=center;" parent="1" vertex="1">
          <mxGeometry x="389" y="-630" width="120" height="40" as="geometry" />
        </mxCell>
        <mxCell id="uA43tMn0e1lxk-yBUitx-12" value="&lt;span style=&quot;color: rgb(64, 64, 64); font-family: DeepSeek-CJK-patch, Inter, system-ui, -apple-system, BlinkMacSystemFont, &amp;quot;Segoe UI&amp;quot;, Roboto, &amp;quot;Noto Sans&amp;quot;, Ubuntu, Cantarell, &amp;quot;Helvetica Neue&amp;quot;, Oxygen, &amp;quot;Open Sans&amp;quot;, sans-serif; font-size: 15px; text-align: left; background-color: rgb(255, 255, 255);&quot;&gt;translation&lt;/span&gt;" style="whiteSpace=wrap;html=1;align=center;" parent="1" vertex="1">
          <mxGeometry x="509" y="-630" width="120" height="40" as="geometry" />
        </mxCell>
        <mxCell id="uA43tMn0e1lxk-yBUitx-13" value="&lt;span style=&quot;color: rgb(64, 64, 64); font-family: DeepSeek-CJK-patch, Inter, system-ui, -apple-system, BlinkMacSystemFont, &amp;quot;Segoe UI&amp;quot;, Roboto, &amp;quot;Noto Sans&amp;quot;, Ubuntu, Cantarell, &amp;quot;Helvetica Neue&amp;quot;, Oxygen, &amp;quot;Open Sans&amp;quot;, sans-serif; font-size: 15px; text-align: left; background-color: rgb(255, 255, 255);&quot;&gt;category&lt;/span&gt;" style="whiteSpace=wrap;html=1;align=center;" parent="1" vertex="1">
          <mxGeometry x="629" y="-630" width="120" height="40" as="geometry" />
        </mxCell>
        <mxCell id="uA43tMn0e1lxk-yBUitx-14" value="&lt;span style=&quot;color: rgb(64, 64, 64); font-family: DeepSeek-CJK-patch, Inter, system-ui, -apple-system, BlinkMacSystemFont, &amp;quot;Segoe UI&amp;quot;, Roboto, &amp;quot;Noto Sans&amp;quot;, Ubuntu, Cantarell, &amp;quot;Helvetica Neue&amp;quot;, Oxygen, &amp;quot;Open Sans&amp;quot;, sans-serif; font-size: 15px; text-align: left; background-color: rgb(255, 255, 255);&quot;&gt;level&lt;/span&gt;" style="whiteSpace=wrap;html=1;align=center;" parent="1" vertex="1">
          <mxGeometry x="749" y="-630" width="120" height="40" as="geometry" />
        </mxCell>
        <mxCell id="uA43tMn0e1lxk-yBUitx-16" value="&lt;span style=&quot;color: rgb(64, 64, 64); font-family: DeepSeek-CJK-patch, Inter, system-ui, -apple-system, BlinkMacSystemFont, &amp;quot;Segoe UI&amp;quot;, Roboto, &amp;quot;Noto Sans&amp;quot;, Ubuntu, Cantarell, &amp;quot;Helvetica Neue&amp;quot;, Oxygen, &amp;quot;Open Sans&amp;quot;, sans-serif; font-size: 15px; text-align: left; background-color: rgb(255, 255, 255);&quot;&gt;is_custom&lt;/span&gt;" style="whiteSpace=wrap;html=1;align=center;" parent="1" vertex="1">
          <mxGeometry x="869" y="-630" width="120" height="40" as="geometry" />
        </mxCell>
        <mxCell id="uA43tMn0e1lxk-yBUitx-17" value="" style="group" parent="1" connectable="0" vertex="1">
          <mxGeometry x="150" y="-870" width="360" height="40" as="geometry" />
        </mxCell>
        <mxCell id="uA43tMn0e1lxk-yBUitx-18" value="&lt;span style=&quot;color: rgb(64, 64, 64); font-family: DeepSeek-CJK-patch, Inter, system-ui, -apple-system, BlinkMacSystemFont, &amp;quot;Segoe UI&amp;quot;, Roboto, &amp;quot;Noto Sans&amp;quot;, Ubuntu, Cantarell, &amp;quot;Helvetica Neue&amp;quot;, Oxygen, &amp;quot;Open Sans&amp;quot;, sans-serif; font-size: 15px; text-align: left; background-color: rgb(255, 255, 255);&quot;&gt;id&lt;/span&gt;" style="whiteSpace=wrap;html=1;align=center;" parent="uA43tMn0e1lxk-yBUitx-17" vertex="1">
          <mxGeometry width="120" height="40" as="geometry" />
        </mxCell>
        <mxCell id="uA43tMn0e1lxk-yBUitx-19" value="word (VARCHAR(255))" style="whiteSpace=wrap;html=1;align=center;" parent="uA43tMn0e1lxk-yBUitx-17" vertex="1">
          <mxGeometry x="120" width="120" height="40" as="geometry" />
        </mxCell>
        <mxCell id="uA43tMn0e1lxk-yBUitx-20" value="&lt;span style=&quot;background-color: rgb(255, 255, 255);&quot;&gt;translation (VARCHAR(255))&lt;/span&gt;" style="whiteSpace=wrap;html=1;align=center;" parent="uA43tMn0e1lxk-yBUitx-17" vertex="1">
          <mxGeometry x="240" width="120" height="40" as="geometry" />
        </mxCell>
        <mxCell id="uA43tMn0e1lxk-yBUitx-21" value="&lt;strong style=&quot;font-family: inherit; font-style: inherit; font-variant: inherit; background-color: rgb(255, 255, 255); box-sizing: border-box; margin: 0px; padding: 0px; border: 0px; font-stretch: inherit; line-height: inherit; font-optical-sizing: inherit; font-size-adjust: inherit; font-kerning: inherit; font-feature-settings: inherit; font-variation-settings: inherit; vertical-align: baseline;&quot; class=&quot;sc-iFwKgL hUqJiY&quot;&gt;&lt;span style=&quot;box-sizing: border-box; margin: 0px; padding: 0px; border: 0px; font-style: inherit; font-variant: inherit; font-weight: inherit; font-stretch: inherit; line-height: inherit; font-family: inherit; font-optical-sizing: inherit; font-size-adjust: inherit; font-kerning: inherit; font-feature-settings: inherit; font-variation-settings: inherit; vertical-align: baseline;&quot; class=&quot;sc-hjriPb UUUfT&quot;&gt;user_states&lt;/span&gt;&lt;/strong&gt;" style="whiteSpace=wrap;html=1;align=center;" parent="1" vertex="1">
          <mxGeometry x="150" y="-910" width="480" height="40" as="geometry" />
        </mxCell>
        <mxCell id="uA43tMn0e1lxk-yBUitx-22" value="&lt;span style=&quot;color: rgb(64, 64, 64); font-family: DeepSeek-CJK-patch, Inter, system-ui, -apple-system, BlinkMacSystemFont, &amp;quot;Segoe UI&amp;quot;, Roboto, &amp;quot;Noto Sans&amp;quot;, Ubuntu, Cantarell, &amp;quot;Helvetica Neue&amp;quot;, Oxygen, &amp;quot;Open Sans&amp;quot;, sans-serif; font-size: 15px; text-align: left; background-color: rgb(255, 255, 255);&quot;&gt;user_id&lt;/span&gt;" style="whiteSpace=wrap;html=1;align=center;" parent="1" vertex="1">
          <mxGeometry x="270" y="-870" width="120" height="40" as="geometry" />
        </mxCell>
        <mxCell id="uA43tMn0e1lxk-yBUitx-23" value="&lt;span style=&quot;color: rgb(64, 64, 64); font-family: DeepSeek-CJK-patch, Inter, system-ui, -apple-system, BlinkMacSystemFont, &amp;quot;Segoe UI&amp;quot;, Roboto, &amp;quot;Noto Sans&amp;quot;, Ubuntu, Cantarell, &amp;quot;Helvetica Neue&amp;quot;, Oxygen, &amp;quot;Open Sans&amp;quot;, sans-serif; font-size: 15px; text-align: left; background-color: rgb(255, 255, 255);&quot;&gt;level&lt;/span&gt;" style="whiteSpace=wrap;html=1;align=center;" parent="1" vertex="1">
          <mxGeometry x="390" y="-870" width="120" height="40" as="geometry" />
        </mxCell>
        <mxCell id="uA43tMn0e1lxk-yBUitx-24" value="&lt;span style=&quot;color: rgb(64, 64, 64); font-family: DeepSeek-CJK-patch, Inter, system-ui, -apple-system, BlinkMacSystemFont, &amp;quot;Segoe UI&amp;quot;, Roboto, &amp;quot;Noto Sans&amp;quot;, Ubuntu, Cantarell, &amp;quot;Helvetica Neue&amp;quot;, Oxygen, &amp;quot;Open Sans&amp;quot;, sans-serif; font-size: 15px; text-align: left; background-color: rgb(255, 255, 255);&quot;&gt;category&lt;/span&gt;" style="whiteSpace=wrap;html=1;align=center;" parent="1" vertex="1">
          <mxGeometry x="510" y="-870" width="120" height="40" as="geometry" />
        </mxCell>
        <mxCell id="5j_cM3AdmCN1_-_gZiW3-4" style="edgeStyle=orthogonalEdgeStyle;rounded=0;orthogonalLoop=1;jettySize=auto;html=1;exitX=0;exitY=0;exitDx=0;exitDy=0;entryX=0;entryY=0.5;entryDx=0;entryDy=0;" parent="1" source="5j_cM3AdmCN1_-_gZiW3-5" target="uA43tMn0e1lxk-yBUitx-10" edge="1">
          <mxGeometry relative="1" as="geometry">
            <mxPoint x="130" y="-660" as="targetPoint" />
            <Array as="points">
              <mxPoint x="150" y="-1010" />
              <mxPoint x="110" y="-1010" />
              <mxPoint x="110" y="-650" />
            </Array>
          </mxGeometry>
        </mxCell>
        <mxCell id="uA43tMn0e1lxk-yBUitx-28" value="&lt;span style=&quot;color: rgb(64, 64, 64); font-family: DeepSeek-CJK-patch, Inter, system-ui, -apple-system, BlinkMacSystemFont, &amp;quot;Segoe UI&amp;quot;, Roboto, &amp;quot;Noto Sans&amp;quot;, Ubuntu, Cantarell, &amp;quot;Helvetica Neue&amp;quot;, Oxygen, &amp;quot;Open Sans&amp;quot;, sans-serif; text-align: left; background-color: rgb(255, 255, 255);&quot;&gt;&lt;font style=&quot;font-size: 12px;&quot;&gt;&lt;b style=&quot;&quot;&gt;One-to-Many&lt;/b&gt;&lt;/font&gt;&lt;/span&gt;" style="text;html=1;align=center;verticalAlign=middle;whiteSpace=wrap;rounded=0;rotation=270;" parent="1" vertex="1">
          <mxGeometry x="60" y="-870" width="80" height="30" as="geometry" />
        </mxCell>
        <mxCell id="uA43tMn0e1lxk-yBUitx-30" style="edgeStyle=orthogonalEdgeStyle;rounded=0;orthogonalLoop=1;jettySize=auto;html=1;entryX=1;entryY=0.5;entryDx=0;entryDy=0;" parent="1" target="uA43tMn0e1lxk-yBUitx-21" edge="1">
          <mxGeometry relative="1" as="geometry">
            <mxPoint x="670" y="-510" as="targetPoint" />
            <Array as="points">
              <mxPoint x="670" y="-1010" />
              <mxPoint x="670" y="-890" />
            </Array>
            <mxPoint x="510" y="-1010" as="sourcePoint" />
          </mxGeometry>
        </mxCell>
        <mxCell id="uA43tMn0e1lxk-yBUitx-31" value="&lt;span style=&quot;color: rgb(64, 64, 64); font-family: DeepSeek-CJK-patch, Inter, system-ui, -apple-system, BlinkMacSystemFont, &amp;quot;Segoe UI&amp;quot;, Roboto, &amp;quot;Noto Sans&amp;quot;, Ubuntu, Cantarell, &amp;quot;Helvetica Neue&amp;quot;, Oxygen, &amp;quot;Open Sans&amp;quot;, sans-serif; text-align: left; background-color: rgb(255, 255, 255);&quot;&gt;&lt;font style=&quot;font-size: 12px;&quot;&gt;&lt;b style=&quot;&quot;&gt;One-to-One&lt;/b&gt;&lt;/font&gt;&lt;/span&gt;" style="text;html=1;align=center;verticalAlign=middle;whiteSpace=wrap;rounded=0;rotation=90;" parent="1" vertex="1">
          <mxGeometry x="650" y="-940" width="80" height="30" as="geometry" />
        </mxCell>
        <mxCell id="uA43tMn0e1lxk-yBUitx-32" style="edgeStyle=orthogonalEdgeStyle;rounded=0;orthogonalLoop=1;jettySize=auto;html=1;exitX=1;exitY=0.5;exitDx=0;exitDy=0;entryX=1;entryY=0.5;entryDx=0;entryDy=0;" parent="1" source="5j_cM3AdmCN1_-_gZiW3-17" target="uA43tMn0e1lxk-yBUitx-10" edge="1">
          <mxGeometry relative="1" as="geometry">
            <mxPoint x="990" y="-640" as="targetPoint" />
            <Array as="points">
              <mxPoint x="750" y="-767" />
              <mxPoint x="1029" y="-767" />
              <mxPoint x="1029" y="-650" />
            </Array>
            <mxPoint x="869" y="-767" as="sourcePoint" />
          </mxGeometry>
        </mxCell>
        <mxCell id="uA43tMn0e1lxk-yBUitx-33" value="&lt;h1 style=&quot;box-sizing: border-box; margin-right: 0px; margin-bottom: 16px; margin-left: 0px; padding-bottom: 0.3em; border-bottom: 1px solid rgba(209, 217, 224, 0.7); line-height: 95%; margin-top: 0px !important; color: rgb(31, 35, 40); background-color: rgb(255, 255, 255);&quot; dir=&quot;auto&quot; class=&quot;heading-element&quot; tabindex=&quot;-1&quot;&gt;&lt;span style=&quot;font-weight: normal;&quot;&gt;&lt;font face=&quot;Times New Roman&quot; style=&quot;font-size: 16px;&quot;&gt;&lt;br style=&quot;&quot;&gt;&lt;/font&gt;&lt;/span&gt;&lt;/h1&gt;&lt;span style=&quot;font-size: 16px; font-family: &amp;quot;Times New Roman&amp;quot;; background-color: transparent; color: light-dark(rgb(0, 0, 0), rgb(255, 255, 255));&quot;&gt;Связи между таблицами&lt;/span&gt;&lt;br&gt;&lt;span style=&quot;font-size: 16px; font-family: &amp;quot;Times New Roman&amp;quot;; background-color: transparent; color: light-dark(rgb(0, 0, 0), rgb(255, 255, 255));&quot;&gt;users → user_words&lt;/span&gt;&lt;br&gt;&lt;span style=&quot;background-color: transparent; color: light-dark(rgb(0, 0, 0), rgb(255, 255, 255)); font-family: &amp;quot;Times New Roman&amp;quot;; font-size: 16px;&quot;&gt;Тип связи:&amp;nbsp;Один ко многим (One-to-Many).&lt;/span&gt;&lt;br&gt;&lt;span style=&quot;font-size: 16px; font-family: &amp;quot;Times New Roman&amp;quot;; background-color: transparent; color: light-dark(rgb(0, 0, 0), rgb(255, 255, 255));&quot;&gt;Описание:&amp;nbsp;Один пользователь может иметь множество записей в&amp;nbsp;&lt;/span&gt;&lt;span style=&quot;font-size: 16px; font-family: &amp;quot;Times New Roman&amp;quot;; background-color: transparent; color: light-dark(rgb(0, 0, 0), rgb(255, 255, 255)); border-radius: 4px; padding: 0.15rem 0.3rem;&quot;&gt;user_words&lt;/span&gt;&lt;span style=&quot;font-size: 16px; font-family: &amp;quot;Times New Roman&amp;quot;; background-color: transparent; color: light-dark(rgb(0, 0, 0), rgb(255, 255, 255));&quot;&gt;.&lt;/span&gt;&lt;br&gt;&lt;span style=&quot;font-size: 16px; font-family: &amp;quot;Times New Roman&amp;quot;; background-color: transparent; color: light-dark(rgb(0, 0, 0), rgb(255, 255, 255));&quot;&gt;Внешний ключ:&amp;nbsp;&lt;/span&gt;&lt;span style=&quot;font-size: 16px; font-family: &amp;quot;Times New Roman&amp;quot;; background-color: transparent; color: light-dark(rgb(0, 0, 0), rgb(255, 255, 255)); border-radius: 4px; padding: 0.15rem 0.3rem;&quot;&gt;user_words.user_id&lt;/span&gt;&lt;span style=&quot;font-size: 16px; font-family: &amp;quot;Times New Roman&amp;quot;; background-color: transparent; color: light-dark(rgb(0, 0, 0), rgb(255, 255, 255));&quot;&gt;&amp;nbsp;ссылается на&amp;nbsp;&lt;/span&gt;&lt;span style=&quot;font-size: 16px; font-family: &amp;quot;Times New Roman&amp;quot;; background-color: transparent; color: light-dark(rgb(0, 0, 0), rgb(255, 255, 255)); border-radius: 4px; padding: 0.15rem 0.3rem;&quot;&gt;users.id&lt;/span&gt;&lt;span style=&quot;font-size: 16px; font-family: &amp;quot;Times New Roman&amp;quot;; background-color: transparent; color: light-dark(rgb(0, 0, 0), rgb(255, 255, 255));&quot;&gt;.&lt;/span&gt;&lt;br&gt;&lt;span style=&quot;font-size: 16px; font-family: &amp;quot;Times New Roman&amp;quot;; background-color: transparent; color: light-dark(rgb(0, 0, 0), rgb(255, 255, 255));&quot;&gt;users → user_states&lt;/span&gt;&lt;br&gt;&lt;span style=&quot;font-size: 16px; font-family: &amp;quot;Times New Roman&amp;quot;; background-color: transparent; color: light-dark(rgb(0, 0, 0), rgb(255, 255, 255));&quot;&gt;Тип связи:&amp;nbsp;Один к одному (One-to-One).&lt;/span&gt;&lt;br&gt;&lt;span style=&quot;font-size: 16px; font-family: &amp;quot;Times New Roman&amp;quot;; background-color: transparent; color: light-dark(rgb(0, 0, 0), rgb(255, 255, 255));&quot;&gt;Описание:&amp;nbsp;Каждый пользователь имеет только одно текущее состояние.&lt;/span&gt;&lt;br&gt;&lt;span style=&quot;font-size: 16px; font-family: &amp;quot;Times New Roman&amp;quot;; background-color: transparent; color: light-dark(rgb(0, 0, 0), rgb(255, 255, 255));&quot;&gt;Внешний ключ:&amp;nbsp;&lt;/span&gt;&lt;span style=&quot;font-size: 16px; font-family: &amp;quot;Times New Roman&amp;quot;; background-color: transparent; color: light-dark(rgb(0, 0, 0), rgb(255, 255, 255)); border-radius: 4px; padding: 0.15rem 0.3rem;&quot;&gt;user_states.user_id&lt;/span&gt;&lt;span style=&quot;font-size: 16px; font-family: &amp;quot;Times New Roman&amp;quot;; background-color: transparent; color: light-dark(rgb(0, 0, 0), rgb(255, 255, 255));&quot;&gt;&amp;nbsp;ссылается на&amp;nbsp;&lt;/span&gt;&lt;span style=&quot;font-size: 16px; font-family: &amp;quot;Times New Roman&amp;quot;; background-color: transparent; color: light-dark(rgb(0, 0, 0), rgb(255, 255, 255)); border-radius: 4px; padding: 0.15rem 0.3rem;&quot;&gt;users.id&lt;/span&gt;&lt;span style=&quot;font-size: 16px; font-family: &amp;quot;Times New Roman&amp;quot;; background-color: transparent; color: light-dark(rgb(0, 0, 0), rgb(255, 255, 255));&quot;&gt;&amp;nbsp;с ограничением&amp;nbsp;&lt;/span&gt;&lt;span style=&quot;font-size: 16px; font-family: &amp;quot;Times New Roman&amp;quot;; background-color: transparent; color: light-dark(rgb(0, 0, 0), rgb(255, 255, 255)); border-radius: 4px; padding: 0.15rem 0.3rem;&quot;&gt;UNIQUE&lt;/span&gt;&lt;span style=&quot;font-size: 16px; font-family: &amp;quot;Times New Roman&amp;quot;; background-color: transparent; color: light-dark(rgb(0, 0, 0), rgb(255, 255, 255));&quot;&gt;.&lt;/span&gt;&lt;br&gt;&lt;span style=&quot;font-size: 16px; font-family: &amp;quot;Times New Roman&amp;quot;; background-color: transparent; color: light-dark(rgb(0, 0, 0), rgb(255, 255, 255));&quot;&gt;words → user_words (логическая связь)&lt;/span&gt;&lt;br&gt;&lt;h3 style=&quot;&quot;&gt;&lt;span style=&quot;font-weight: normal;&quot;&gt;&lt;font face=&quot;Times New Roman&quot; style=&quot;font-size: 16px;&quot;&gt;Описание:&amp;nbsp;Стандартные слова из&amp;nbsp;&lt;span style=&quot;border-radius: 4px; padding: 0.15rem 0.3rem;&quot;&gt;words&lt;/span&gt;&amp;nbsp;копируются в&amp;nbsp;&lt;span style=&quot;border-radius: 4px; padding: 0.15rem 0.3rem;&quot;&gt;user_words&lt;/span&gt;&amp;nbsp;при вызове&amp;nbsp;&lt;span style=&quot;border-radius: 4px; padding: 0.15rem 0.3rem;&quot;&gt;load_standard_words_for_user()&lt;/span&gt;. В структуре БД явной связи нет — она реализована на уровне приложения.&lt;/font&gt;&lt;/span&gt;&lt;/h3&gt;" style="text;html=1;align=left;verticalAlign=middle;whiteSpace=wrap;rounded=0;" parent="1" vertex="1">
          <mxGeometry x="170" y="-510" width="800" height="200" as="geometry" />
        </mxCell>
      </root>
    </mxGraphModel>
  </diagram>
</mxfile>
